<?xml version="1.0" standalone="no"?>
<!DOCTYPE svg PUBLIC "-//W3C//DTD SVG 20010904//EN"
 "http://www.w3.org/TR/2001/REC-SVG-20010904/DTD/svg10.dtd">
<svg version="1.0" xmlns="http://www.w3.org/2000/svg"
 width="268.000000pt" height="273.000000pt" viewBox="0 0 268.000000 273.000000"
 preserveAspectRatio="xMidYMid meet">

<g transform="translate(0.000000,273.000000) scale(0.100000,-0.100000)"
fill="#000000" stroke="none">
<path d="M925 2470 c-25 -27 -10 -39 16 -13 12 11 17 23 11 27 -5 3 -17 -3
-27 -14z"/>
<path d="M851 2398 c-90 -98 -116 -127 -166 -193 -103 -134 -169 -289 -163
-383 l3 -47 22 41 c12 22 42 63 67 91 45 50 56 76 36 88 -15 9 -12 122 4 154
31 60 162 149 264 181 41 13 43 16 38 43 -3 16 -6 34 -6 39 0 5 -6 6 -12 2
-10 -6 -10 -5 -1 7 11 13 8 16 -18 16 -23 0 -40 -10 -68 -39z"/>
<path d="M1291 2324 c0 -11 3 -14 6 -6 3 7 2 16 -1 19 -3 4 -6 -2 -5 -13z"/>
<path d="M1276 2283 c-8 -21 -1 -27 17 -16 12 6 13 10 2 20 -10 10 -15 9 -19
-4z"/>
<path d="M1555 2170 c3 -5 8 -10 11 -10 2 0 4 5 4 10 0 6 -5 10 -11 10 -5 0
-7 -4 -4 -10z"/>
<path d="M1670 2160 c0 -5 5 -10 10 -10 6 0 10 5 10 10 0 6 -4 10 -10 10 -5 0
-10 -4 -10 -10z"/>
<path d="M1590 2140 c0 -5 5 -10 11 -10 5 0 7 5 4 10 -3 6 -8 10 -11 10 -2 0
-4 -4 -4 -10z"/>
<path d="M1245 2115 c-85 -303 -151 -401 -271 -399 -54 0 -87 18 -161 87 -36
34 -42 70 -19 115 7 15 17 38 21 51 l7 24 -27 -21 c-33 -26 -45 -28 -45 -6 0
24 -95 -72 -146 -149 -62 -93 -65 -105 -43 -149 28 -55 1 -103 -52 -92 -23 4
-27 1 -32 -26 -4 -16 -1 -41 5 -55 13 -30 -1 -90 -30 -123 -30 -34 -28 -110 3
-152 39 -53 49 -103 34 -173 -8 -40 -9 -61 -1 -69 7 -7 12 -4 16 9 9 28 103
73 152 73 62 0 139 -43 169 -94 26 -45 34 -122 16 -168 -20 -52 -103 -118
-148 -118 -26 0 -28 -7 -9 -32 9 -12 27 -18 55 -18 73 0 131 -48 131 -109 0
-25 52 -64 105 -81 22 -7 62 -23 89 -36 28 -13 55 -24 62 -24 6 0 14 17 18 38
7 47 39 78 88 87 71 13 139 -55 124 -125 l-5 -30 59 0 c75 0 107 14 120 56 6
18 17 38 25 44 17 14 50 101 58 153 6 36 3 42 -37 80 -23 23 -51 56 -61 72
-11 17 -32 46 -47 65 -20 26 -27 46 -27 75 1 41 26 115 39 115 12 0 20 28 14
45 -4 9 -19 15 -35 15 -41 0 -140 46 -146 68 -3 14 -80 52 -105 52 -3 0 5 -21
18 -47 39 -75 28 -149 -30 -212 -64 -69 -156 -81 -242 -31 -91 52 -119 156
-67 251 46 86 162 126 243 84 17 -9 40 -12 59 -9 16 4 44 2 60 -4 29 -10 30
-9 27 11 -2 13 -9 20 -17 17 -34 -11 -89 -3 -103 15 -11 15 -27 19 -84 20
-100 2 -160 42 -188 128 -50 151 97 297 247 245 65 -22 129 -98 129 -153 0
-29 0 -28 35 -15 21 8 35 7 58 -5 38 -19 37 -19 37 8 0 15 15 37 38 58 21 19
36 41 34 49 -1 9 7 25 18 37 11 12 20 27 20 33 0 5 3 10 8 10 8 0 102 86 102
94 0 3 -13 3 -30 0 -39 -8 -39 6 0 50 23 26 38 34 64 34 54 0 59 10 21 43 -19
17 -37 39 -40 50 -5 15 -10 17 -25 9 -15 -8 -24 -6 -40 10 -11 11 -20 25 -20
30 0 6 -6 10 -13 10 -10 0 -14 -14 -13 -47 1 -29 -4 -48 -11 -50 -7 -3 -13
-19 -13 -36 0 -46 -30 -63 -64 -36 -15 12 -26 31 -26 45 0 22 -14 30 -43 25
-5 -1 -6 3 -2 9 3 5 -5 14 -18 19 -13 5 -32 21 -41 36 -15 23 -16 31 -5 51 7
13 21 26 32 30 12 4 17 12 14 25 -4 15 0 19 19 19 13 0 24 5 24 11 0 6 -9 8
-20 4 -11 -4 -20 -2 -20 4 0 14 -91 10 -95 -4z m-433 -379 c39 -17 58 -51 58
-106 0 -32 -6 -43 -37 -69 -44 -37 -93 -41 -137 -12 -51 34 -69 88 -44 134 33
63 91 82 160 53z m675 -48 c-3 -8 -6 -5 -6 6 -1 11 2 17 5 13 3 -3 4 -12 1
-19z m-727 -220 c154 -53 167 -273 20 -348 -43 -22 -122 -26 -167 -9 -98 37
-147 172 -98 269 17 33 64 76 95 89 35 14 110 13 150 -1z m345 -639 c60 -17
122 -85 131 -145 12 -85 -35 -172 -114 -206 -154 -68 -320 82 -261 237 23 59
43 83 94 106 46 21 93 24 150 8z"/>
<path d="M1727 2119 c7 -7 15 -10 18 -7 3 3 -2 9 -12 12 -14 6 -15 5 -6 -5z"/>
<path d="M1427 2076 c-16 -6 -26 -15 -23 -23 3 -7 2 -12 -2 -11 -4 1 -17 -1
-29 -6 -26 -8 -33 -56 -9 -56 7 0 19 -7 26 -15 18 -22 30 -9 30 32 0 49 10 37
12 -15 2 -61 28 -57 28 4 0 25 4 54 10 64 14 26 -8 39 -43 26z"/>
<path d="M1627 2073 c-11 -11 -8 -53 4 -53 6 0 9 7 6 15 -4 8 -2 17 3 20 6 4
10 10 10 16 0 10 -14 12 -23 2z"/>
<path d="M1810 2058 c0 -29 29 -75 30 -46 0 9 -3 18 -7 21 -5 2 -2 2 5 1 18
-5 15 11 -8 31 -19 18 -20 17 -20 -7z"/>
<path d="M1683 2037 c4 -10 7 -23 7 -28 0 -5 5 -9 10 -9 16 0 12 26 -7 41 -15
12 -16 12 -10 -4z"/>
<path d="M1850 2020 c0 -5 5 -10 10 -10 6 0 10 5 10 10 0 6 -4 10 -10 10 -5 0
-10 -4 -10 -10z"/>
<path d="M1880 2007 c0 -7 11 -17 25 -23 22 -11 24 -10 15 6 -12 22 -40 34
-40 17z"/>
<path d="M1659 1986 c12 -12 21 -28 21 -34 0 -15 -1 -15 49 3 42 14 42 14 35
-8 -5 -18 -4 -20 7 -9 18 17 39 15 39 -4 0 -10 -6 -14 -15 -10 -9 3 -15 0 -15
-9 0 -9 6 -12 15 -9 12 5 14 -1 11 -30 -3 -21 -1 -36 5 -36 6 0 7 -4 4 -10 -3
-5 -1 -10 6 -10 7 0 10 -2 7 -5 -10 -11 -38 8 -38 25 0 10 -7 20 -15 24 -8 3
-15 12 -15 19 0 8 -7 20 -15 27 -12 10 -13 16 -4 26 13 16 1 18 -21 4 -13 -9
-12 -13 8 -28 13 -10 24 -29 25 -42 1 -14 9 -33 18 -43 9 -9 22 -29 29 -43 12
-22 12 -27 0 -34 -16 -10 -58 -3 -77 13 -9 7 -13 5 -13 -7 0 -21 -60 -57 -82
-50 -10 3 -21 -3 -27 -15 -6 -11 -23 -26 -38 -33 -18 -9 -31 -28 -41 -56 -8
-25 -30 -58 -50 -77 -29 -26 -36 -40 -36 -71 0 -22 2 -45 4 -52 9 -24 -25 -38
-54 -23 -14 8 -25 17 -24 20 2 20 -4 32 -22 41 -29 15 -76 -7 -90 -41 -7 -15
-25 -41 -42 -58 -25 -26 -28 -34 -18 -46 17 -21 23 -19 59 16 24 23 40 30 64
28 18 -2 43 3 55 10 27 15 105 7 159 -15 19 -8 38 -12 43 -9 5 3 11 1 15 -5 3
-5 17 -10 31 -10 19 0 24 -5 24 -25 0 -14 -8 -29 -19 -35 -26 -13 -98 -13
-107 1 -11 18 -85 47 -128 51 -31 2 -42 -2 -54 -20 -14 -21 -13 -22 17 -28 36
-8 43 -16 51 -64 5 -34 6 -35 58 -38 28 -2 52 -7 52 -13 0 -16 18 -10 24 9 3
9 26 28 50 41 37 21 48 23 72 14 16 -6 49 -12 73 -12 30 -1 52 -8 66 -21 12
-11 25 -20 30 -20 5 0 16 -7 25 -15 9 -9 37 -21 61 -28 37 -10 47 -19 64 -54
11 -23 27 -42 36 -43 8 0 24 -7 35 -15 10 -8 27 -15 37 -15 11 0 32 -10 49
-21 36 -26 33 -54 -13 -111 -16 -20 -34 -49 -41 -65 -28 -64 -72 -114 -140
-161 -27 -18 -48 -38 -49 -45 -1 -22 -99 -93 -231 -166 -24 -13 -38 -26 -32
-28 17 -6 161 53 229 94 165 99 326 271 342 366 2 10 11 27 21 38 11 11 25 39
32 62 8 23 19 53 26 67 39 81 49 386 16 491 -44 134 -55 165 -72 198 -26 48
-48 76 -56 69 -6 -7 14 -44 39 -70 19 -20 23 -48 7 -48 -5 0 -10 -5 -10 -11 0
-6 6 -9 13 -6 17 6 23 -78 6 -88 -6 -4 -9 -37 -8 -81 1 -41 -1 -77 -4 -80 -4
-4 -2 -15 4 -26 7 -13 7 -23 0 -31 -5 -7 -11 -30 -13 -52 -3 -39 -4 -40 -43
-40 -39 0 -40 1 -37 33 3 23 -2 38 -13 46 -9 6 -17 26 -17 43 -1 18 -4 32 -7
31 -25 -3 -31 6 -31 42 0 43 1 42 -70 44 -44 1 -45 2 -47 35 -1 19 -6 37 -11
40 -11 7 -18 41 -35 158 -7 45 -15 85 -19 89 -5 4 -8 20 -8 34 0 15 -7 33 -15
40 -8 7 -12 17 -8 24 4 6 6 21 4 34 -1 12 2 22 8 22 6 0 11 7 11 16 0 12 -4
14 -12 7 -7 -6 -20 -9 -28 -7 -77 16 -91 16 -110 -1 -19 -17 -20 -17 -20 3 0
21 -14 35 -39 38 -8 2 -5 -6 8 -20z m181 -259 c0 -5 -4 -5 -10 -2 -5 3 -10 14
-10 23 0 15 2 15 10 2 5 -8 10 -19 10 -23z m140 -293 c0 -8 -4 -12 -10 -9 -5
3 -10 13 -10 21 0 8 5 12 10 9 6 -3 10 -13 10 -21z m-7 -72 c2 -23 0 -42 -4
-42 -5 0 -9 21 -9 47 0 56 7 54 13 -5z m77 -292 c0 -5 -10 -10 -22 -10 -19 0
-20 2 -8 10 19 13 30 13 30 0z m177 -122 c-3 -8 -6 -5 -6 6 -1 11 2 17 5 13 3
-3 4 -12 1 -19z"/>
<path d="M1980 1990 c0 -5 10 -15 23 -21 22 -12 22 -12 3 10 -21 23 -26 26
-26 11z"/>
<path d="M2060 1905 c7 -8 17 -15 22 -15 6 0 5 7 -2 15 -7 8 -17 15 -22 15 -6
0 -5 -7 2 -15z"/>
<path d="M2132 1820 c7 -11 18 -22 26 -25 8 -3 6 4 -5 20 -21 29 -38 34 -21 5z"/>
<path d="M1662 1799 c2 -7 10 -15 17 -17 8 -3 12 1 9 9 -2 7 -10 15 -17 17 -8
3 -12 -1 -9 -9z"/>
<path d="M2135 1750 c3 -19 10 -39 16 -45 7 -7 8 -1 3 20 -11 46 -26 67 -19
25z"/>
<path d="M2251 1754 c0 -11 3 -14 6 -6 3 7 2 16 -1 19 -3 4 -6 -2 -5 -13z"/>
<path d="M420 1663 c0 -12 5 -25 10 -28 13 -8 13 15 0 35 -8 12 -10 11 -10 -7z"/>
<path d="M425 1610 c-3 -5 -1 -10 4 -10 6 0 11 5 11 10 0 6 -2 10 -4 10 -3 0
-8 -4 -11 -10z"/>
<path d="M2326 1586 c6 -44 22 -91 29 -84 3 3 -4 31 -15 64 -16 48 -19 52 -14
20z"/>
<path d="M2200 1596 c0 -8 5 -18 10 -21 6 -3 10 3 10 14 0 12 -4 21 -10 21 -5
0 -10 -6 -10 -14z"/>
<path d="M385 1580 l-30 -8 28 -1 c15 0 30 -1 34 -2 4 0 9 4 11 10 4 12 1 12
-43 1z"/>
<path d="M280 1545 c-11 -13 -10 -14 4 -9 9 3 16 10 16 15 0 13 -6 11 -20 -6z"/>
<path d="M235 1481 c-3 -5 -1 -12 5 -16 5 -3 10 1 10 9 0 18 -6 21 -15 7z"/>
<path d="M2361 1304 c-1 -148 -11 -222 -41 -317 -131 -401 -515 -676 -947
-677 -42 0 -75 -5 -79 -11 -10 -17 -87 -5 -120 19 -16 12 -41 24 -56 28 -28 6
-28 5 -28 -41 0 -40 -5 -52 -34 -81 -30 -30 -40 -34 -85 -34 -67 0 -99 16
-123 63 -25 51 -18 95 24 143 26 29 29 37 17 45 -21 13 -39 11 -39 -5 0 -22
-63 -56 -103 -56 -52 0 -104 28 -119 64 -19 46 -13 114 11 140 12 12 21 27 21
32 0 16 -60 69 -107 94 -57 31 -93 98 -93 173 0 85 -5 92 -48 59 -31 -23 -45
-27 -106 -27 -64 0 -76 3 -118 33 -27 18 -56 47 -65 65 -18 34 -23 144 -9 185
11 29 -6 29 -19 0 -6 -13 -16 -23 -24 -23 -7 0 -18 -11 -22 -25 -8 -23 -8 -24
6 -6 13 17 15 17 21 2 13 -35 2 -153 -16 -166 -4 -3 -10 -23 -13 -45 l-6 -40
33 0 c19 0 33 2 31 4 -5 4 40 41 51 41 4 0 -3 -8 -14 -19 -17 -14 -22 -30 -22
-65 0 -25 5 -46 10 -46 6 0 10 -14 10 -31 0 -27 -3 -30 -27 -29 -16 1 -47 2
-70 1 l-43 -1 0 -375 0 -375 1340 0 1340 0 0 455 0 455 -62 1 c-35 1 -73 1
-85 1 -18 -1 -23 4 -23 23 0 18 -4 23 -15 19 -13 -6 -20 6 -16 29 0 4 -6 7
-14 7 -11 0 -14 12 -14 48 0 26 -6 69 -15 97 -15 48 -13 95 5 95 5 0 9 11 9
25 0 14 -4 25 -10 25 -5 0 -10 -11 -10 -25 0 -26 -17 -35 -25 -12 -2 6 -7 32
-9 57 -3 25 -12 68 -20 95 -15 50 -15 49 -15 -91z m-2211 -599 c0 -19 -4 -35
-9 -35 -7 0 -8 53 -2 68 5 12 11 -5 11 -33z m1122 -468 c10 -13 18 -40 18 -65
0 -63 -40 -102 -105 -102 -38 0 -52 5 -76 29 -56 56 -31 159 44 179 39 11 94
-8 119 -41z"/>
<path d="M250 1406 c0 -9 5 -16 10 -16 6 0 10 4 10 9 0 6 -4 13 -10 16 -5 3
-10 -1 -10 -9z"/>
<path d="M277 1367 c3 -5 7 -21 9 -34 2 -19 -3 -23 -24 -24 -15 -1 -4 -5 23
-9 28 -4 62 -10 78 -14 26 -8 27 -7 27 29 0 25 -4 35 -12 32 -7 -2 -34 4 -60
13 -27 10 -45 13 -41 7z"/>
<path d="M170 1269 c0 -5 5 -7 10 -4 6 3 10 8 10 11 0 2 -4 4 -10 4 -5 0 -10
-5 -10 -11z"/>
<path d="M127 1254 c7 -3 9 -12 6 -20 -4 -10 0 -12 11 -8 20 8 21 20 0 28 -18
7 -35 7 -17 0z"/>
<path d="M1305 1200 c28 -12 45 -12 45 0 0 6 -15 10 -32 9 -28 0 -30 -2 -13
-9z"/>
<path d="M1646 1128 c-4 -19 -46 -25 -46 -8 0 18 -29 10 -35 -10 -3 -11 -11
-20 -16 -20 -6 0 -7 -15 -3 -36 5 -30 2 -41 -24 -72 -24 -31 -29 -45 -26 -81
3 -50 55 -132 122 -194 30 -29 42 -47 42 -68 0 -58 -23 -131 -56 -180 -43 -64
-46 -94 -6 -57 15 14 46 35 68 46 23 12 44 28 47 36 3 8 19 17 36 21 17 4 31
11 31 16 0 5 16 19 35 31 18 13 39 33 44 45 6 13 35 39 65 58 52 33 89 80 129
166 9 19 25 43 37 54 11 10 20 24 20 31 0 19 -33 34 -58 27 -15 -3 -24 0 -28
12 -5 12 -14 15 -31 10 -32 -8 -53 10 -53 44 0 36 -26 71 -54 71 -25 0 -76 21
-76 32 0 16 -66 41 -111 42 -38 1 -49 -3 -53 -16z"/>
<path d="M40 1075 c0 -14 5 -25 10 -25 6 0 10 11 10 25 0 14 -4 25 -10 25 -5
0 -10 -11 -10 -25z"/>
<path d="M42 1015 c0 -16 2 -22 5 -12 2 9 2 23 0 30 -3 6 -5 -1 -5 -18z"/>
</g>
</svg>
