<?xml version="1.0" standalone="no"?>
<!DOCTYPE svg PUBLIC "-//W3C//DTD SVG 20010904//EN"
 "http://www.w3.org/TR/2001/REC-SVG-20010904/DTD/svg10.dtd">
<svg version="1.0" xmlns="http://www.w3.org/2000/svg"
 width="384.000000pt" height="384.000000pt" viewBox="0 0 384.000000 384.000000"
 preserveAspectRatio="xMidYMid meet">

<g transform="translate(0.000000,384.000000) scale(0.100000,-0.100000)"
fill="#000000" stroke="none">
<path d="M582 3518 l3 -223 1442 -2 1443 -3 0 225 0 225 -1445 0 -1445 0 2
-222z m116 143 c10 -6 14 -41 15 -131 l2 -124 26 -7 c26 -7 27 -6 38 65 6 39
13 99 17 134 6 54 10 63 29 68 38 9 63 -11 70 -59 4 -23 12 -82 19 -132 11
-73 14 -81 15 -42 1 44 3 47 27 47 l26 0 -26 35 c-22 29 -27 44 -24 82 3 42 7
50 32 62 20 9 37 11 55 5 57 -20 69 -114 15 -114 l-26 0 31 -35 c38 -44 44
-112 11 -145 -24 -24 -82 -27 -101 -4 -11 14 -13 14 -21 0 -20 -36 -68 -11
-68 35 0 15 -4 31 -10 34 -9 5 -15 -11 -22 -60 -3 -18 -11 -20 -88 -20 l-85 0
-3 149 c-2 113 1 151 10 158 16 10 20 10 36 -1z m555 -5 c13 -14 37 -155 37
-221 0 -42 14 -15 19 38 1 4 13 7 28 7 l27 0 -28 29 c-20 21 -29 42 -32 74 -4
40 -1 48 22 66 32 25 61 27 92 5 19 -13 22 -24 20 -57 -2 -34 -7 -42 -27 -47
l-24 -5 26 -29 c21 -22 27 -39 27 -74 0 -71 8 -45 26 84 9 65 21 124 25 130 5
6 24 11 41 10 l33 -1 17 -105 c9 -58 18 -121 19 -140 2 -19 6 28 9 104 l5 139
30 3 c38 4 55 -11 55 -50 0 -43 15 -65 23 -34 4 12 7 33 7 45 0 31 12 35 101
38 63 2 84 -1 101 -15 20 -16 22 -16 39 1 10 10 26 16 36 15 16 -3 18 -16 21
-133 3 -130 3 -131 27 -136 l25 -4 1 101 c1 55 1 107 -1 115 -1 7 1 23 4 35 4
18 13 21 53 21 26 0 53 -4 60 -8 19 -12 4 -37 -22 -37 -30 0 -34 -7 -28 -47 4
-27 10 -33 30 -33 33 0 27 -32 -7 -40 -22 -5 -25 -11 -25 -50 0 -39 3 -44 28
-51 35 -9 33 -13 51 134 8 65 17 122 21 125 11 11 64 10 74 -2 10 -12 41 -225
41 -279 0 -25 -3 -28 -27 -25 -24 3 -29 8 -33 41 -6 46 -24 53 -28 12 -2 -16
-8 -35 -13 -41 -6 -7 -60 -12 -150 -12 -130 -1 -141 0 -146 17 -5 19 -5 19
-24 0 -16 -16 -31 -19 -97 -17 l-77 3 -4 45 -4 45 -11 -45 c-9 -34 -17 -45
-31 -45 -15 0 -22 10 -29 43 -13 54 -26 54 -26 -1 l0 -44 -57 1 -58 1 -3 38
c-4 42 -23 46 -29 6 -6 -40 -11 -49 -33 -49 -12 0 -24 9 -28 21 l-8 20 -18
-20 c-20 -22 -65 -28 -95 -11 -12 6 -29 5 -49 -2 -38 -15 -44 -9 -52 45 -7 42
-9 40 -26 -18 -10 -33 -50 -47 -60 -21 -5 13 16 189 32 268 7 36 51 49 77 24z
m1225 -2 c19 -13 22 -24 20 -57 -3 -36 -6 -42 -25 -41 -13 0 -23 -1 -23 -3 0
-2 14 -22 31 -46 26 -36 30 -48 26 -86 -6 -51 -26 -71 -71 -71 -46 0 -66 25
-66 82 0 45 2 48 26 48 l25 0 -27 35 c-66 87 1 197 84 139z m224 -17 l18 -22
0 21 c0 26 12 31 70 30 38 -1 45 -4 48 -23 3 -17 -2 -22 -25 -25 -25 -3 -28
-7 -28 -38 0 -28 4 -36 22 -38 26 -4 39 -31 18 -37 -8 -3 -21 -7 -29 -9 -10
-4 -14 -18 -13 -48 2 -39 5 -43 30 -46 23 -3 28 -8 25 -25 -2 -17 -11 -23 -37
-25 -51 -5 -81 5 -81 28 0 17 -2 17 -25 -5 -27 -28 -95 -35 -113 -12 -16 20
-8 287 9 298 23 16 92 1 111 -24z m331 1 l17 -20 0 20 c0 28 39 40 55 18 11
-15 15 -15 41 -1 16 8 34 15 41 15 24 0 63 -24 63 -39 1 -12 5 -11 20 7 28 33
82 40 109 13 34 -34 23 -112 -13 -98 -24 9 -19 -11 9 -45 22 -26 25 -39 23
-82 -3 -42 -7 -53 -29 -65 -36 -20 -95 -8 -104 22 -5 16 -8 18 -12 7 -14 -39
-72 -53 -109 -26 -16 13 -21 12 -36 -1 -22 -20 -52 -13 -56 14 -3 21 -3 21
-28 -4 -19 -19 -32 -24 -67 -21 l-42 3 -3 149 c-2 113 1 151 10 157 21 13 92
-2 111 -23z"/>
<path d="M990 3598 c0 -7 5 -20 10 -28 8 -12 10 -9 10 13 0 15 -4 27 -10 27
-5 0 -10 -6 -10 -12z"/>
<path d="M990 3435 c0 -22 4 -34 10 -30 6 3 10 17 10 30 0 13 -4 27 -10 30 -6
4 -10 -8 -10 -30z"/>
<path d="M1360 3603 c0 -5 5 -15 10 -23 8 -12 10 -11 10 8 0 12 -4 22 -10 22
-5 0 -10 -3 -10 -7z"/>
<path d="M1888 3580 c-3 -16 -1 -30 4 -30 4 0 8 14 8 30 0 17 -2 30 -4 30 -2
0 -6 -13 -8 -30z"/>
<path d="M1945 3530 c-4 -6 -3 -16 3 -22 13 -13 23 4 13 21 -7 10 -10 10 -16
1z"/>
<path d="M1889 3455 c-6 -40 -4 -53 7 -43 3 3 4 23 2 44 l-3 39 -6 -40z"/>
<path d="M1360 3441 c0 -17 5 -31 10 -31 6 0 10 11 10 24 0 14 -4 28 -10 31
-6 4 -10 -7 -10 -24z"/>
<path d="M2432 3590 c0 -14 2 -19 5 -12 2 6 2 18 0 25 -3 6 -5 1 -5 -13z"/>
<path d="M2432 3435 c0 -16 2 -22 5 -12 2 9 2 23 0 30 -3 6 -5 -1 -5 -18z"/>
<path d="M2644 3510 c0 -58 1 -81 3 -52 2 28 2 76 0 105 -2 28 -3 5 -3 -53z"/>
<path d="M2974 3510 c0 -58 1 -81 3 -52 2 28 2 76 0 105 -2 28 -3 5 -3 -53z"/>
<path d="M3180 3504 c0 -67 4 -103 10 -99 6 3 10 50 10 106 0 59 -4 99 -10 99
-6 0 -10 -42 -10 -106z"/>
<path d="M3320 3596 c0 -8 5 -18 10 -21 6 -3 10 3 10 14 0 12 -4 21 -10 21 -5
0 -10 -6 -10 -14z"/>
<path d="M3260 3512 c0 -27 4 -32 25 -32 14 0 25 4 25 8 0 5 -11 19 -25 32
l-25 23 0 -31z"/>
<path d="M3320 3438 c0 -21 5 -38 10 -38 13 0 13 40 0 60 -7 11 -10 5 -10 -22z"/>
<path d="M580 2191 c0 -1004 5 -1137 46 -1260 71 -211 201 -380 415 -539 225
-166 437 -256 729 -309 149 -27 409 -22 572 10 135 27 300 79 408 129 69 32
213 117 218 130 2 5 8 8 14 8 6 0 29 15 52 32 214 167 340 347 410 583 20 68
20 95 23 1108 l4 1037 -1446 0 -1445 0 0 -929z m2694 846 c-2 -7 4 -24 16 -37
25 -29 25 -35 1 -69 -12 -16 -18 -36 -15 -49 4 -13 -1 -27 -15 -38 -12 -10
-21 -28 -21 -39 0 -11 -7 -29 -15 -39 -8 -10 -12 -23 -9 -28 7 -12 -46 -69
-57 -62 -15 9 -20 -15 -7 -35 14 -24 64 -45 126 -56 48 -8 53 -17 16 -33 -19
-9 -24 -17 -19 -32 5 -15 2 -20 -14 -20 -11 0 -33 -14 -50 -31 -27 -27 -37
-30 -74 -27 -23 3 -55 12 -69 22 l-27 18 18 48 18 48 -44 31 c-24 17 -52 46
-61 63 -9 17 -27 42 -40 54 -27 27 -20 53 17 60 23 5 27 11 27 40 0 32 29 84
51 91 6 2 13 -10 17 -28 l6 -31 29 31 c20 21 38 31 58 31 33 0 68 33 98 93 18
34 51 55 39 24z m-2320 -22 c16 -9 32 -12 35 -7 15 23 50 22 92 -3 29 -16 59
-25 90 -25 64 0 79 -20 84 -106 2 -37 9 -70 15 -74 6 -4 8 -14 5 -23 -6 -13
-27 -15 -135 -16 -114 0 -130 2 -145 20 -18 19 -18 19 -50 -1 -26 -16 -47 -19
-131 -17 l-99 2 0 51 c1 59 23 134 45 151 8 7 29 13 47 13 17 0 35 5 39 11 5
9 60 38 74 39 3 0 18 -7 34 -15z m1034 -167 c13 -13 15 -762 3 -1308 l-6 -285
-190 0 -190 0 -3 53 -3 52 -47 2 c-26 0 -56 0 -67 -1 -11 -1 -30 1 -42 4 -23
5 -23 8 -23 160 0 177 -6 168 105 164 36 -1 67 0 69 2 2 2 6 172 10 377 l6
373 -23 -12 c-64 -33 -155 -109 -213 -177 -37 -42 -69 -84 -72 -92 -3 -8 -18
-35 -34 -59 -69 -110 -111 -272 -111 -431 -1 -143 28 -281 79 -378 10 -20 11
-28 1 -34 -7 -4 -79 -8 -160 -8 l-148 0 -16 38 c-24 58 -53 217 -60 327 -10
183 37 406 124 580 177 354 509 595 893 649 52 8 97 14 101 15 3 1 10 -4 17
-11z m207 -4 c223 -27 491 -161 663 -331 103 -102 224 -288 272 -418 49 -131
71 -240 77 -385 13 -301 -92 -600 -295 -837 l-44 -53 -835 0 -834 0 -44 48
c-58 63 -92 111 -148 208 -53 91 -58 114 -24 114 12 0 258 1 547 3 l525 2 -4
817 c-3 667 -2 820 9 833 10 12 24 15 49 11 20 -3 59 -8 86 -12z m-745 -2123
c117 -69 224 -111 352 -141 86 -20 116 -22 260 -17 218 6 338 39 513 140 56
33 80 41 122 41 29 1 54 -3 55 -9 8 -26 -187 -142 -319 -190 -151 -54 -237
-68 -408 -68 -144 1 -171 4 -277 31 -129 33 -249 86 -360 157 -89 57 -82 51
-75 70 10 24 84 17 137 -14z"/>
<path d="M2470 1817 l0 -615 23 -6 c12 -3 79 -6 149 -6 l128 0 23 38 c71 112
110 269 110 442 1 229 -67 409 -223 589 -48 57 -141 135 -192 162 -17 9 -18
-20 -18 -604z"/>
</g>
</svg>
