<?xml version="1.0" encoding="iso-8859-1"?>
<!-- Generator: Adobe Illustrator 19.0.0, SVG Export Plug-In . SVG Version: 6.00 Build 0)  -->
<svg version="1.1" id="Capa_1" xmlns="http://www.w3.org/2000/svg" xmlns:xlink="http://www.w3.org/1999/xlink" x="0px" y="0px"
	 viewBox="0 0 512 512" style="enable-background:new 0 0 512 512;" xml:space="preserve">
<circle style="fill:#6EBA3B;" cx="256" cy="256" r="256"/>
<path style="fill:#488057;" d="M512,256c0-16.324-1.546-32.285-4.467-47.76L426,126.707L86,385.293l122.24,122.24
	C223.715,510.454,239.676,512,256,512C397.385,512,512,397.385,512,256z"/>
<rect x="86" y="126.71" style="fill:#FFFFFF;" width="340" height="258.59"/>
<rect x="256.5" y="126.71" style="fill:#E0E0E0;" width="169.5" height="258.59"/>
<rect x="123.67" y="159.76" style="fill:#35CCFF;" width="264.67" height="192.48"/>
<rect x="256.5" y="159.76" style="fill:#00BAFF;" width="131.83" height="192.48"/>
<polygon style="fill:#AE4E32;" points="183.333,352.238 284.984,212.786 373.726,352.238 "/>
<polygon style="fill:#9B3E29;" points="284.984,212.786 256.5,251.862 256.5,352.238 373.726,352.238 "/>
<polygon style="fill:#FF6838;" points="123.667,352.238 207.667,237 281,352.238 "/>
<polygon style="fill:#AE4E32;" points="256.5,313.738 256.5,352.238 281,352.238 "/>
<circle style="fill:#FFDC00;" cx="340.33" cy="202.33" r="29.333"/>
<g>
</g>
<g>
</g>
<g>
</g>
<g>
</g>
<g>
</g>
<g>
</g>
<g>
</g>
<g>
</g>
<g>
</g>
<g>
</g>
<g>
</g>
<g>
</g>
<g>
</g>
<g>
</g>
<g>
</g>
</svg>
